<svg width="102" height="36" viewBox="0 0 102 36" fill="none" xmlns="http://www.w3.org/2000/svg">
<g clip-path="url(#clip0_2191_1307)">
<path d="M10.3933 25.4834C10.2224 25.6592 10.0515 25.6592 9.88066 25.4834L8.95799 24.551C8.88964 24.4827 8.85547 24.3948 8.85547 24.2923V1.29858C8.85547 1.12771 8.91405 1.00567 9.0361 0.937319C9.15815 0.868973 9.28507 0.903146 9.42177 1.03984L13.2199 4.82818C13.2882 4.89653 13.3224 4.9844 13.3224 5.08692V22.4176C13.3224 22.5201 13.2882 22.608 13.2199 22.6764L10.3981 25.4786L10.3933 25.4834ZM9.41689 34.7297C9.28019 34.8664 9.15326 34.9055 9.03122 34.8323C8.90917 34.7639 8.85059 34.6419 8.85059 34.471V19.3127C8.85059 19.2102 8.88476 19.1223 8.95311 19.054L9.87578 18.1216C10.0466 17.9507 10.2175 17.9507 10.3884 18.1216L13.2101 20.9775C13.2785 21.0458 13.3126 21.1337 13.3126 21.2362V30.6827C13.3126 30.7852 13.2785 30.8731 13.2101 30.9414L9.412 34.7297H9.41689ZM25.5662 35.6622C25.4978 35.7305 25.4099 35.7647 25.3074 35.7647H10.0955C9.91972 35.7647 9.80255 35.6964 9.73421 35.5548C9.66586 35.4181 9.70003 35.2765 9.83673 35.1398L13.6251 31.4003C13.6934 31.3319 13.7813 31.2978 13.8887 31.2978H23.4377C23.5402 31.2978 23.6281 31.3319 23.6964 31.4003L26.4986 34.2562C26.6353 34.4319 26.6353 34.5833 26.4986 34.7249L25.5662 35.6573V35.6622ZM23.7013 4.46204C23.6329 4.53039 23.5451 4.56944 23.4425 4.56944H13.8936C13.7911 4.56944 13.7032 4.53527 13.63 4.46692L12.6438 3.47102C12.1605 3.05118 11.6821 2.5874 11.2183 2.07968C10.7545 1.57196 10.2907 1.08866 9.84161 0.634642C9.73909 0.493068 9.7098 0.356375 9.7635 0.2148C9.8172 0.0732254 9.9246 0.004879 10.1003 0.004879H25.3123C25.4148 0.004879 25.5027 0.0390522 25.571 0.107399L26.5035 1.05448C26.6744 1.23023 26.6744 1.40598 26.5035 1.58173L23.7013 4.47181V4.46204ZM22.9007 20.0401C22.8323 20.1085 22.7444 20.1427 22.6419 20.1427H13.42C13.3175 20.1427 13.2296 20.1085 13.1613 20.0401L11.2427 18.1948C11.067 18.0239 11.067 17.8531 11.2427 17.6822L13.1613 15.7831C13.2296 15.7148 13.3175 15.6806 13.42 15.6806H22.6419C22.7444 15.6806 22.8323 15.7148 22.9007 15.7831L24.8192 17.6822C24.9901 17.8531 24.9901 18.0239 24.8192 18.1948L22.9007 20.0401ZM28.4758 9.82235V14.094C28.4758 14.1965 28.4416 14.2844 28.3733 14.3527L25.5515 17.1549C25.4148 17.3307 25.2635 17.3307 25.0926 17.1549L24.1162 16.2225C24.0479 16.1542 24.0137 16.0663 24.0137 15.9638V9.82235M24.0088 9.82235V5.08692C24.0088 4.9844 24.043 4.89653 24.1114 4.82818L26.9331 1.97228C27.0698 1.83559 27.2211 1.83559 27.392 1.97228L28.3684 2.95842C28.4367 3.02677 28.4709 3.11464 28.4709 3.21716V9.82235M28.4758 25.9668V32.5964C28.4758 32.6989 28.4416 32.7868 28.3733 32.8551L27.3969 33.7875C27.226 33.9633 27.0698 33.9633 26.938 33.7875L24.1162 30.9316C24.0479 30.8633 24.0137 30.7754 24.0137 30.6729V25.9619M24.0088 25.9668V19.796C24.0088 19.6935 24.043 19.6057 24.1114 19.5373L25.0877 18.6049C25.2586 18.4682 25.4148 18.4682 25.5466 18.6049L28.3684 21.4608C28.4367 21.5291 28.4709 21.617 28.4709 21.7195V25.9668" fill="#E1FF00"/>
<path d="M71.9388 4.48643C71.8705 4.55478 71.7826 4.59383 71.6801 4.59383H61.2035C61.101 4.59383 61.0132 4.55966 60.9497 4.49131L57.2102 0.65903C57.0735 0.517455 57.0295 0.380762 57.0784 0.239188C57.1321 0.0976128 57.2443 0.0292664 57.4152 0.0292664H73.5498C73.6524 0.0292664 73.7402 0.0634396 73.8086 0.131786L74.7947 1.07887C74.9656 1.25462 74.9656 1.43037 74.7947 1.60123L71.9437 4.48643H71.9388ZM60.2125 35.7647C60.11 35.7647 60.0221 35.7305 59.9538 35.6622L59.0213 34.7297C58.8456 34.593 58.8456 34.4368 59.0213 34.2611L61.8724 31.41C61.9407 31.3417 62.0286 31.3075 62.1311 31.3075H72.6076C72.7443 31.3075 72.8127 31.3417 72.8127 31.41L76.601 35.1447C76.7377 35.2814 76.7719 35.4229 76.7035 35.5596C76.6352 35.6963 76.5131 35.7696 76.3423 35.7696H60.2076L60.2125 35.7647ZM72.4075 20.0499C72.3391 20.1182 72.2513 20.1524 72.1487 20.1524H61.6673C61.5648 20.1524 61.4769 20.1182 61.4086 20.0499L59.49 18.2045C59.3143 18.0337 59.3143 17.8628 59.49 17.6919L61.4086 15.7929C61.4769 15.7245 61.5648 15.6904 61.6673 15.6904H72.1487C72.2513 15.6904 72.3391 15.7245 72.4075 15.7929L74.3261 17.6919C74.4969 17.8628 74.4969 18.0337 74.3261 18.2045L72.4075 20.0499ZM57.1028 20.2989C57.1028 20.1963 57.1369 20.1085 57.2053 20.0401L58.6308 18.6195C58.8065 18.4828 58.9579 18.4828 59.0995 18.6195L61.4623 20.9823C61.5306 21.0507 61.5648 21.1385 61.5648 21.2411V30.6826C61.5648 30.7852 61.5306 30.873 61.4623 30.9414L58.6113 33.7924C58.4746 33.9681 58.3184 33.9681 58.1426 33.7924L57.2102 32.86C57.1418 32.7916 57.1076 32.7037 57.1076 32.6012V20.2989H57.1028ZM76.7084 15.5195C76.7084 15.622 76.6742 15.7099 76.6059 15.7782L75.1804 17.1989C75.0046 17.3356 74.8533 17.3356 74.7117 17.1989L72.3489 14.836C72.2805 14.7677 72.2464 14.6798 72.2464 14.5773V5.13572C72.2464 5.0332 72.2805 4.94533 72.3489 4.87698L75.1999 2.02596C75.3366 1.85021 75.4928 1.85021 75.6686 2.02596L76.601 2.9584C76.6694 3.02675 76.7035 3.11462 76.7035 3.21714V15.5195H76.7084Z" fill="#E1FF00"/>
<path d="M86.0084 14.6017C86.0084 14.7042 85.9743 14.7921 85.9059 14.8604L83.0549 17.6626C82.8791 17.8384 82.7083 17.8384 82.5374 17.6626L81.6538 16.7302C81.5854 16.6619 81.5513 16.574 81.5513 16.4715V3.24155C81.5513 3.13903 81.5854 3.05116 81.6538 2.98281L82.5374 1.99667C82.7083 1.82581 82.884 1.82581 83.0549 1.99667L85.9059 4.84769C85.9743 4.91604 86.0084 5.00391 86.0084 5.10643V14.6017ZM86.0084 30.6826C86.0084 30.7852 85.9743 30.873 85.9059 30.9414L83.0549 33.7924C82.8791 33.9681 82.7083 33.9681 82.5374 33.7924L81.6538 32.86C81.5854 32.7916 81.5513 32.7037 81.5513 32.6012V19.3225C81.5513 19.22 81.5854 19.1321 81.6538 19.0637L82.5374 18.1313C82.7083 17.9604 82.884 17.9604 83.0549 18.1313L85.9059 20.9823C85.9743 21.0507 86.0084 21.1385 86.0084 21.2411V30.6826ZM97.3149 4.38391C97.3149 4.45226 97.2465 4.48643 97.1098 4.48643H86.6333C86.5308 4.48643 86.4429 4.45226 86.3746 4.38391L83.5235 1.56218C83.3478 1.39132 83.3478 1.22045 83.5235 1.04959L84.456 0.126909C84.5243 0.0585625 84.6122 0.0243893 84.7147 0.0243893H100.849C101.02 0.0243893 101.142 0.0927357 101.211 0.229429C101.279 0.366121 101.245 0.502814 101.108 0.639507L97.3198 4.38391H97.3149ZM98.1985 35.6622C98.1302 35.7305 98.0423 35.7647 97.9398 35.7647H84.7099C84.6073 35.7647 84.5195 35.7305 84.4511 35.6622L83.5187 34.7297C83.3429 34.593 83.3429 34.4368 83.5187 34.2611L86.3697 31.41C86.438 31.3417 86.5259 31.3075 86.6284 31.3075H96.07C96.1725 31.3075 96.2604 31.3417 96.3287 31.41L99.1798 34.2611C99.3165 34.4368 99.3165 34.5881 99.1798 34.7297L98.1936 35.6622H98.1985ZM98.716 17.6919C98.8869 17.8628 98.8869 18.0337 98.716 18.2045L96.8462 20.0499C96.7779 20.1182 96.69 20.1524 96.5875 20.1524H86.111C86.0084 20.1524 85.9206 20.1182 85.8522 20.0499L83.9824 18.2045C83.8067 18.0337 83.8067 17.8628 83.9824 17.6919L85.8522 15.7929C85.9206 15.7245 86.0084 15.6904 86.111 15.6904H96.5875C96.69 15.6904 96.7779 15.7245 96.8462 15.7929L98.716 17.6919ZM101.157 32.6012C101.157 32.7037 101.123 32.7916 101.054 32.86L100.122 33.7924C99.9462 33.9681 99.7949 33.9681 99.6533 33.7924L96.8023 30.9414C96.7339 30.873 96.6998 30.7852 96.6998 30.6826V21.2411C96.6998 21.1385 96.7339 21.0507 96.8023 20.9823L99.1651 18.6195C99.3018 18.4828 99.458 18.4828 99.6338 18.6195L101.059 20.0401C101.128 20.1085 101.162 20.1963 101.162 20.2989V32.6012H101.157Z" fill="#E1FF00"/>
<path d="M3.42708 17.6285C3.25622 17.7994 3.08535 17.7994 2.91449 17.6285L0.10252 14.7775C0.0341732 14.7092 0 14.6213 0 14.5188V3.23674C0 3.13422 0.0341732 3.04635 0.10252 2.978L2.91449 0.126982C3.08535 -0.0438838 3.25622 -0.0438838 3.42708 0.126982L4.34976 1.05942C4.41811 1.12777 4.45228 1.21564 4.45228 1.31816V16.4325C4.45228 16.535 4.41811 16.6229 4.34976 16.6912L3.42708 17.6237V17.6285ZM3.42708 35.589C3.25622 35.7599 3.08535 35.7599 2.91449 35.589L0.10252 32.7429C0.0341732 32.6745 0 32.5867 0 32.4841V21.1972C0 21.0947 0.0341732 21.0068 0.10252 20.9385L2.91449 18.0923C3.08535 17.9215 3.25622 17.9215 3.42708 18.0923L4.34976 19.0248C4.41811 19.0931 4.45228 19.181 4.45228 19.2835V34.3978C4.45228 34.5003 4.41811 34.5882 4.34976 34.6566L3.42708 35.589Z" fill="#E1FF00"/>
<path d="M53.4225 1.01053C53.5934 1.18139 53.5934 1.35714 53.4225 1.52801L50.5764 4.37415C50.5081 4.44249 50.4202 4.47667 50.3177 4.47667H35.7208C35.6183 4.47667 35.5304 4.44249 35.4621 4.37415L32.6159 1.52801C32.4451 1.35714 32.4451 1.18139 32.6159 1.01053L33.5484 0.131786C33.6167 0.0634396 33.6851 0.0292664 33.7534 0.0292664H52.3388L53.4274 1.01541L53.4225 1.01053ZM44.1177 17.6285C43.9468 17.7993 43.7955 17.7993 43.6588 17.6285L40.8468 14.7823C40.7785 14.714 40.7443 14.6261 40.7443 14.5236V5.35541C40.7443 5.11619 40.8615 4.99414 41.1007 4.99414H44.8353C45.0745 4.99414 45.1917 5.11619 45.1917 5.35541V16.3836C45.1917 16.4861 45.1575 16.574 45.0892 16.6423L44.1177 17.6236V17.6285ZM44.1177 35.5889C43.9468 35.7598 43.7955 35.7598 43.6588 35.5889L40.8468 32.7428C40.7785 32.6744 40.7443 32.5866 40.7443 32.4841V21.1971C40.7443 21.0946 40.7785 21.0067 40.8468 20.9384L43.6588 18.0922C43.7955 17.9556 43.9468 17.9556 44.1177 18.0922L45.0892 18.971C45.1575 19.0393 45.1917 19.1272 45.1917 19.2297V34.3978C45.1575 34.4319 45.1429 34.4661 45.1429 34.5003L45.0892 34.6028L44.1177 35.5889Z" fill="#E1FF00"/>
</g>
<defs>
<clipPath id="clip0_2191_1307">
<rect width="101.245" height="35.7647" fill="white"/>
</clipPath>
</defs>
</svg>
